<mxfile host="app.diagrams.net" agent="Mozilla/5.0 (Windows NT 10.0; Win64; x64; rv:141.0) Gecko/20100101 Firefox/141.0" version="28.0.7">
  <diagram name="Page-1" id="mbV2-MWnAEcJnIByhfUp">
    <mxGraphModel dx="7760" dy="3815" grid="1" gridSize="10" guides="1" tooltips="1" connect="1" arrows="1" fold="1" page="1" pageScale="1" pageWidth="850" pageHeight="1100" math="0" shadow="0">
      <root>
        <mxCell id="0" />
        <mxCell id="1" parent="0" />
        <mxCell id="hYVu58ygskaPqe57401e-2" value="" style="html=1;jettySize=18;whiteSpace=wrap;fontSize=13;strokeOpacity=100;strokeWidth=1.5;rounded=1;arcSize=48;curved=1;startArrow=none;exitX=1;exitY=0.5;exitPerimeter=0;entryX=0;entryY=0.5;entryPerimeter=0;lucidId=-.CICr1zb-9I;" edge="1" parent="1" source="hYVu58ygskaPqe57401e-3" target="hYVu58ygskaPqe57401e-7">
          <mxGeometry width="100" height="100" relative="1" as="geometry">
            <Array as="points">
              <mxPoint x="-1055" y="-169" />
              <mxPoint x="48" y="-183" />
            </Array>
          </mxGeometry>
        </mxCell>
        <mxCell id="hYVu58ygskaPqe57401e-3" value="DMI (kg)" style="html=1;overflow=block;blockSpacing=1;whiteSpace=wrap;fontSize=16.7;spacing=9;strokeColor=none;strokeOpacity=0;fillOpacity=100;fillColor=#9391ff;strokeWidth=0;lucidId=-.CI_wQ8EZIK;" vertex="1" parent="1">
          <mxGeometry x="-1461" y="-229" width="218" height="120" as="geometry" />
        </mxCell>
        <mxCell id="hYVu58ygskaPqe57401e-4" value="" style="html=1;jettySize=18;whiteSpace=wrap;fontSize=13;strokeColor=#3a414a;strokeOpacity=100;strokeWidth=2.3;rounded=1;arcSize=48;curved=1;startArrow=none;exitX=1;exitY=0.5;exitPerimeter=0;entryX=0;entryY=0.5;entryPerimeter=0;lucidId=fp0BFd1WS6S2;" edge="1" parent="1" source="hYVu58ygskaPqe57401e-3" target="hYVu58ygskaPqe57401e-29">
          <mxGeometry width="100" height="100" relative="1" as="geometry">
            <Array as="points">
              <mxPoint x="-941" y="-169" />
              <mxPoint x="-497" y="86" />
              <mxPoint x="-195" y="455" />
              <mxPoint x="64" y="815" />
            </Array>
          </mxGeometry>
        </mxCell>
        <mxCell id="hYVu58ygskaPqe57401e-5" value="Week of Lactation" style="html=1;overflow=block;blockSpacing=1;whiteSpace=wrap;fontSize=16.7;align=center;spacing=9;strokeColor=none;strokeOpacity=0;fillOpacity=100;fillColor=#00c2a8;strokeWidth=0;lucidId=Lp0B8JUC1BkQ;" vertex="1" parent="1">
          <mxGeometry x="-988" y="-403" width="120" height="120" as="geometry" />
        </mxCell>
        <mxCell id="hYVu58ygskaPqe57401e-6" value="" style="html=1;jettySize=18;whiteSpace=wrap;fontSize=13;strokeColor=#3a414a;strokeOpacity=100;strokeWidth=2.3;rounded=1;arcSize=48;edgeStyle=orthogonalEdgeStyle;startArrow=none;exitX=1;exitY=0.5;exitPerimeter=0;entryX=0;entryY=0.5;entryPerimeter=0;lucidId=Rp0BQHwcUXZI;" edge="1" parent="1" source="hYVu58ygskaPqe57401e-3" target="hYVu58ygskaPqe57401e-5">
          <mxGeometry width="100" height="100" relative="1" as="geometry">
            <Array as="points" />
          </mxGeometry>
        </mxCell>
        <mxCell id="hYVu58ygskaPqe57401e-7" value="Anggaran Pengeluaran susu" style="html=1;overflow=block;blockSpacing=1;whiteSpace=wrap;fontSize=16.7;spacing=9;verticalAlign=middle;strokeColor=none;strokeOpacity=0;fillOpacity=100;fillColor=#6db1ff;strokeWidth=0;lucidId=-.CIoCUJzTKN;" vertex="1" parent="1">
          <mxGeometry x="236" y="-243" width="120" height="120" as="geometry" />
        </mxCell>
        <mxCell id="hYVu58ygskaPqe57401e-8" value="Milk yield (kg)" style="html=1;overflow=block;blockSpacing=1;whiteSpace=wrap;fontSize=16.7;align=center;spacing=9;strokeColor=none;strokeOpacity=0;fillOpacity=100;fillColor=#00c2a8;strokeWidth=0;lucidId=2r0BUfqhLDWU;" vertex="1" parent="1">
          <mxGeometry x="629" y="-243" width="120" height="120" as="geometry" />
        </mxCell>
        <mxCell id="hYVu58ygskaPqe57401e-9" value="Milk fat (%)" style="html=1;overflow=block;blockSpacing=1;whiteSpace=wrap;fontSize=16.7;align=center;spacing=9;strokeColor=none;strokeOpacity=0;fillOpacity=100;fillColor=#00c2a8;strokeWidth=0;lucidId=Zr0B31Lxg8w1;" vertex="1" parent="1">
          <mxGeometry x="629" y="-90" width="120" height="120" as="geometry" />
        </mxCell>
        <mxCell id="hYVu58ygskaPqe57401e-10" value="" style="html=1;jettySize=18;whiteSpace=wrap;fontSize=13;strokeColor=#3a414a;strokeOpacity=100;strokeWidth=2.3;rounded=1;arcSize=48;curved=1;startArrow=none;exitX=1;exitY=0.5;exitPerimeter=0;entryX=0;entryY=0.5;entryPerimeter=0;lucidId=Os0B5~2uPK4n;" edge="1" parent="1" source="hYVu58ygskaPqe57401e-7" target="hYVu58ygskaPqe57401e-8">
          <mxGeometry width="100" height="100" relative="1" as="geometry">
            <Array as="points">
              <mxPoint x="543" y="-183" />
              <mxPoint x="442" y="-183" />
            </Array>
          </mxGeometry>
        </mxCell>
        <mxCell id="hYVu58ygskaPqe57401e-11" value="" style="html=1;jettySize=18;whiteSpace=wrap;fontSize=13;strokeColor=#3a414a;strokeOpacity=100;strokeWidth=2.3;rounded=1;arcSize=48;curved=1;startArrow=none;exitX=1;exitY=0.5;exitPerimeter=0;entryX=0;entryY=0.5;entryPerimeter=0;lucidId=Xs0BHroMdc0u;" edge="1" parent="1" source="hYVu58ygskaPqe57401e-7" target="hYVu58ygskaPqe57401e-9">
          <mxGeometry width="100" height="100" relative="1" as="geometry">
            <Array as="points">
              <mxPoint x="543" y="-183" />
              <mxPoint x="442" y="-30" />
            </Array>
          </mxGeometry>
        </mxCell>
        <mxCell id="hYVu58ygskaPqe57401e-12" value="" style="html=1;jettySize=18;whiteSpace=wrap;fontSize=13;strokeOpacity=100;strokeWidth=1.5;rounded=1;arcSize=48;edgeStyle=orthogonalEdgeStyle;startArrow=none;exitX=1;exitY=0.5;exitPerimeter=0;entryX=0;entryY=0.5;entryPerimeter=0;lucidId=It0BVib~V0m.;" edge="1" parent="1" source="hYVu58ygskaPqe57401e-13" target="hYVu58ygskaPqe57401e-18">
          <mxGeometry width="100" height="100" relative="1" as="geometry">
            <Array as="points" />
          </mxGeometry>
        </mxCell>
        <mxCell id="hYVu58ygskaPqe57401e-13" value="ME (MJ/day)" style="html=1;overflow=block;blockSpacing=1;whiteSpace=wrap;fontSize=16.7;spacing=9;strokeColor=none;strokeOpacity=0;fillOpacity=100;fillColor=#9391ff;strokeWidth=0;lucidId=It0B-A2xNnTo;" vertex="1" parent="1">
          <mxGeometry x="-1450" y="1329" width="218" height="120" as="geometry" />
        </mxCell>
        <mxCell id="hYVu58ygskaPqe57401e-14" value="" style="html=1;jettySize=18;whiteSpace=wrap;fontSize=13;strokeColor=#3a414a;strokeOpacity=100;strokeWidth=2.3;rounded=1;arcSize=48;edgeStyle=orthogonalEdgeStyle;startArrow=none;exitX=1;exitY=0.5;exitPerimeter=0;entryX=0;entryY=0.5;entryPerimeter=0;lucidId=It0BwNI_YE4~;" edge="1" parent="1" source="hYVu58ygskaPqe57401e-13" target="hYVu58ygskaPqe57401e-15">
          <mxGeometry width="100" height="100" relative="1" as="geometry">
            <Array as="points" />
          </mxGeometry>
        </mxCell>
        <mxCell id="hYVu58ygskaPqe57401e-15" value="Maintenance Energy" style="html=1;overflow=block;blockSpacing=1;whiteSpace=wrap;fontSize=16.7;align=center;spacing=9;strokeColor=none;strokeOpacity=0;fillOpacity=100;fillColor=#6db1ff;strokeWidth=0;lucidId=It0B8y7tNSn7;" vertex="1" parent="1">
          <mxGeometry x="-977" y="1013" width="120" height="120" as="geometry" />
        </mxCell>
        <mxCell id="hYVu58ygskaPqe57401e-16" value="" style="html=1;jettySize=18;whiteSpace=wrap;fontSize=13;strokeColor=#3a414a;strokeOpacity=100;strokeWidth=2.3;rounded=1;arcSize=48;edgeStyle=orthogonalEdgeStyle;startArrow=none;exitX=1;exitY=0.5;exitPerimeter=0;entryX=0;entryY=0.5;entryPerimeter=0;lucidId=It0BuZKODYbJ;" edge="1" parent="1" source="hYVu58ygskaPqe57401e-13" target="hYVu58ygskaPqe57401e-17">
          <mxGeometry width="100" height="100" relative="1" as="geometry">
            <Array as="points" />
          </mxGeometry>
        </mxCell>
        <mxCell id="hYVu58ygskaPqe57401e-17" value="Milk yield energy" style="html=1;overflow=block;blockSpacing=1;whiteSpace=wrap;fontSize=16.7;align=center;spacing=9;strokeColor=none;strokeOpacity=0;fillOpacity=100;fillColor=#6db1ff;strokeWidth=0;lucidId=It0B3wTUzhui;" vertex="1" parent="1">
          <mxGeometry x="-977" y="1165" width="120" height="120" as="geometry" />
        </mxCell>
        <mxCell id="hYVu58ygskaPqe57401e-18" value="Pregnancy Energy" style="html=1;overflow=block;blockSpacing=1;whiteSpace=wrap;fontSize=16.7;spacing=9;verticalAlign=middle;strokeColor=none;strokeOpacity=0;fillOpacity=100;fillColor=#6db1ff;strokeWidth=0;lucidId=It0B39tDvTJg;" vertex="1" parent="1">
          <mxGeometry x="-977" y="1329" width="120" height="120" as="geometry" />
        </mxCell>
        <mxCell id="hYVu58ygskaPqe57401e-19" value="&lt;div style=&quot;display: flex; justify-content: center; text-align: center; align-items: baseline; font-size: 0; line-height: 1.25;margin-top: -2px;&quot;&gt;&lt;span&gt;&lt;span style=&quot;font-size:16.7px;&quot;&gt;Calf Birth Weight (kg)&#xa;&lt;/span&gt;&lt;/span&gt;&lt;/div&gt;&lt;div style=&quot;display: flex; justify-content: center; text-align: center; align-items: baseline; font-size: 0; line-height: 1.25;margin-top: -2px;&quot;&gt;&lt;span&gt;&lt;span style=&quot;font-size:16.7px;&quot;&gt;*lookup on breed table&lt;/span&gt;&lt;/span&gt;&lt;/div&gt;" style="html=1;overflow=block;blockSpacing=1;whiteSpace=wrap;fontSize=13;spacing=9;strokeColor=none;strokeOpacity=0;fillOpacity=100;fillColor=#00c2a8;strokeWidth=0;lucidId=It0B5F.33IO_;" vertex="1" parent="1">
          <mxGeometry x="-681" y="1329" width="120" height="120" as="geometry" />
        </mxCell>
        <mxCell id="hYVu58ygskaPqe57401e-20" value="Days in Pregnancy" style="html=1;overflow=block;blockSpacing=1;whiteSpace=wrap;fontSize=16.7;align=center;spacing=9;strokeColor=none;strokeOpacity=0;fillOpacity=100;fillColor=#00c2a8;strokeWidth=0;lucidId=It0BH61HDY-N;" vertex="1" parent="1">
          <mxGeometry x="-681" y="1481" width="120" height="120" as="geometry" />
        </mxCell>
        <mxCell id="hYVu58ygskaPqe57401e-21" value="" style="html=1;jettySize=18;whiteSpace=wrap;fontSize=13;strokeColor=#3a414a;strokeOpacity=100;strokeWidth=2.3;rounded=1;arcSize=48;edgeStyle=orthogonalEdgeStyle;startArrow=none;exitX=1;exitY=0.5;exitPerimeter=0;entryX=0;entryY=0.5;entryPerimeter=0;lucidId=It0BkzJ1da.Q;" edge="1" parent="1" source="hYVu58ygskaPqe57401e-18" target="hYVu58ygskaPqe57401e-19">
          <mxGeometry width="100" height="100" relative="1" as="geometry">
            <Array as="points" />
          </mxGeometry>
        </mxCell>
        <mxCell id="hYVu58ygskaPqe57401e-22" value="" style="html=1;jettySize=18;whiteSpace=wrap;fontSize=13;strokeColor=#3a414a;strokeOpacity=100;strokeWidth=2.3;rounded=1;arcSize=48;edgeStyle=orthogonalEdgeStyle;startArrow=none;exitX=1;exitY=0.5;exitPerimeter=0;entryX=0;entryY=0.5;entryPerimeter=0;lucidId=It0Buovk8plN;" edge="1" parent="1" source="hYVu58ygskaPqe57401e-18" target="hYVu58ygskaPqe57401e-20">
          <mxGeometry width="100" height="100" relative="1" as="geometry">
            <Array as="points" />
          </mxGeometry>
        </mxCell>
        <mxCell id="hYVu58ygskaPqe57401e-23" value="" style="html=1;jettySize=18;whiteSpace=wrap;fontSize=13;strokeColor=#3a414a;strokeOpacity=100;strokeWidth=2.3;rounded=1;arcSize=48;curved=1;startArrow=none;exitX=1;exitY=0.5;exitPerimeter=0;entryX=0;entryY=0.5;entryPerimeter=0;lucidId=_v0B9I0oZ-kk;" edge="1" parent="1" source="hYVu58ygskaPqe57401e-15" target="hYVu58ygskaPqe57401e-29">
          <mxGeometry width="100" height="100" relative="1" as="geometry">
            <Array as="points">
              <mxPoint x="-670" y="1073" />
              <mxPoint x="178" y="815" />
            </Array>
          </mxGeometry>
        </mxCell>
        <mxCell id="hYVu58ygskaPqe57401e-24" value="" style="html=1;jettySize=18;whiteSpace=wrap;fontSize=13;strokeColor=#3a414a;strokeOpacity=100;strokeWidth=2.3;rounded=1;arcSize=48;curved=1;startArrow=none;exitX=1;exitY=0.5;exitPerimeter=0;entryX=0;entryY=0.5;entryPerimeter=0;lucidId=ex0BpXExhH7K;" edge="1" parent="1" source="hYVu58ygskaPqe57401e-17" target="hYVu58ygskaPqe57401e-8">
          <mxGeometry width="100" height="100" relative="1" as="geometry">
            <Array as="points">
              <mxPoint x="-670" y="1225" />
              <mxPoint x="442" y="-183" />
            </Array>
          </mxGeometry>
        </mxCell>
        <mxCell id="hYVu58ygskaPqe57401e-25" value="" style="html=1;jettySize=18;whiteSpace=wrap;fontSize=13;strokeColor=#3a414a;strokeOpacity=100;strokeWidth=2.3;rounded=1;arcSize=48;curved=1;startArrow=none;exitX=1;exitY=0.5;exitPerimeter=0;entryX=0;entryY=0.5;entryPerimeter=0;lucidId=yx0BDTfGlSse;" edge="1" parent="1" source="hYVu58ygskaPqe57401e-17" target="hYVu58ygskaPqe57401e-9">
          <mxGeometry width="100" height="100" relative="1" as="geometry">
            <Array as="points">
              <mxPoint x="-670" y="1225" />
              <mxPoint x="442" y="-30" />
            </Array>
          </mxGeometry>
        </mxCell>
        <mxCell id="hYVu58ygskaPqe57401e-26" value="Milk protein (%)" style="html=1;overflow=block;blockSpacing=1;whiteSpace=wrap;fontSize=16.7;align=center;spacing=9;strokeColor=none;strokeOpacity=0;fillOpacity=100;fillColor=#00c2a8;strokeWidth=0;lucidId=Sx0Be9ts12Re;" vertex="1" parent="1">
          <mxGeometry x="629" y="73" width="120" height="120" as="geometry" />
        </mxCell>
        <mxCell id="hYVu58ygskaPqe57401e-27" value="" style="html=1;jettySize=18;whiteSpace=wrap;fontSize=13;strokeColor=#3a414a;strokeOpacity=100;strokeWidth=2.3;rounded=1;arcSize=48;curved=1;startArrow=none;exitX=1;exitY=0.5;exitPerimeter=0;entryX=0;entryY=0.5;entryPerimeter=0;lucidId=~x0B9MdRnbCZ;" edge="1" parent="1" source="hYVu58ygskaPqe57401e-17" target="hYVu58ygskaPqe57401e-26">
          <mxGeometry width="100" height="100" relative="1" as="geometry">
            <Array as="points">
              <mxPoint x="-670" y="1225" />
              <mxPoint x="442" y="133" />
            </Array>
          </mxGeometry>
        </mxCell>
        <mxCell id="hYVu58ygskaPqe57401e-28" value="" style="html=1;jettySize=18;whiteSpace=wrap;fontSize=13;strokeOpacity=100;strokeWidth=1.5;rounded=1;arcSize=48;edgeStyle=orthogonalEdgeStyle;startArrow=none;exitX=1;exitY=0.5;exitPerimeter=0;entryX=0;entryY=0.5;entryPerimeter=0;lucidId=PA0BClJXfmCf;" edge="1" parent="1" source="hYVu58ygskaPqe57401e-30" target="hYVu58ygskaPqe57401e-32">
          <mxGeometry width="100" height="100" relative="1" as="geometry">
            <Array as="points" />
          </mxGeometry>
        </mxCell>
        <mxCell id="hYVu58ygskaPqe57401e-29" value="Body Weight (kg)" style="html=1;overflow=block;blockSpacing=1;whiteSpace=wrap;fontSize=16.7;align=center;spacing=9;strokeColor=none;strokeOpacity=0;fillOpacity=100;fillColor=#00c2a8;strokeWidth=0;lucidId=-.CI.5995WXx;" vertex="1" parent="1">
          <mxGeometry x="365" y="755" width="120" height="120" as="geometry" />
        </mxCell>
        <mxCell id="hYVu58ygskaPqe57401e-30" value="Ca (g/day)" style="html=1;overflow=block;blockSpacing=1;whiteSpace=wrap;fontSize=16.7;spacing=9;strokeColor=none;strokeOpacity=0;fillOpacity=100;fillColor=#9391ff;strokeWidth=0;lucidId=PA0B~rLJDDm2;" vertex="1" parent="1">
          <mxGeometry x="-1480" y="555" width="218" height="120" as="geometry" />
        </mxCell>
        <mxCell id="hYVu58ygskaPqe57401e-31" value="" style="html=1;jettySize=18;whiteSpace=wrap;fontSize=13;strokeColor=#3a414a;strokeOpacity=100;strokeWidth=2.3;rounded=1;arcSize=48;edgeStyle=orthogonalEdgeStyle;startArrow=none;exitX=1;exitY=0.5;exitPerimeter=0;entryX=0;entryY=0.5;entryPerimeter=0;lucidId=PA0BbkgYnwtW;" edge="1" parent="1" source="hYVu58ygskaPqe57401e-30" target="hYVu58ygskaPqe57401e-33">
          <mxGeometry width="100" height="100" relative="1" as="geometry">
            <Array as="points" />
          </mxGeometry>
        </mxCell>
        <mxCell id="hYVu58ygskaPqe57401e-32" value="Lactation Ca" style="html=1;overflow=block;blockSpacing=1;whiteSpace=wrap;fontSize=16.7;spacing=9;verticalAlign=middle;strokeColor=none;strokeOpacity=0;fillOpacity=100;fillColor=#6db1ff;strokeWidth=0;lucidId=PA0Bx-bm_fjn;" vertex="1" parent="1">
          <mxGeometry x="-1007" y="555" width="120" height="120" as="geometry" />
        </mxCell>
        <mxCell id="hYVu58ygskaPqe57401e-33" value="Maintenance Ca" style="html=1;overflow=block;blockSpacing=1;whiteSpace=wrap;fontSize=16.7;align=center;spacing=9;strokeColor=none;strokeOpacity=0;fillOpacity=100;fillColor=#6db1ff;strokeWidth=0;lucidId=PA0BgGe~XNPe;" vertex="1" parent="1">
          <mxGeometry x="-1007" y="392" width="120" height="120" as="geometry" />
        </mxCell>
        <mxCell id="hYVu58ygskaPqe57401e-34" value="&lt;div style=&quot;display: flex; justify-content: center; text-align: center; align-items: baseline; font-size: 0; line-height: 1.25;margin-top: -2px;&quot;&gt;&lt;span&gt;&lt;span style=&quot;font-size:16.7px;&quot;&gt;Calf Birth Wieght (kg)&#xa;&lt;/span&gt;&lt;/span&gt;&lt;/div&gt;&lt;div style=&quot;display: flex; justify-content: center; text-align: center; align-items: baseline; font-size: 0; line-height: 1.25;margin-top: -2px;&quot;&gt;&lt;span&gt;&lt;span style=&quot;font-size:16.7px;&quot;&gt;*lookup on breed table&lt;/span&gt;&lt;/span&gt;&lt;/div&gt;" style="html=1;overflow=block;blockSpacing=1;whiteSpace=wrap;fontSize=13;spacing=9;strokeColor=none;strokeOpacity=0;fillOpacity=100;fillColor=#00c2a8;strokeWidth=0;lucidId=PA0BZOhXQwbc;" vertex="1" parent="1">
          <mxGeometry x="-712" y="555" width="120" height="120" as="geometry" />
        </mxCell>
        <mxCell id="hYVu58ygskaPqe57401e-35" value="Days in Pregnancy" style="html=1;overflow=block;blockSpacing=1;whiteSpace=wrap;fontSize=16.7;align=center;spacing=9;strokeColor=none;strokeOpacity=0;fillOpacity=100;fillColor=#00c2a8;strokeWidth=0;lucidId=PA0BxWFlWpkd;" vertex="1" parent="1">
          <mxGeometry x="-712" y="708" width="120" height="120" as="geometry" />
        </mxCell>
        <mxCell id="hYVu58ygskaPqe57401e-36" value="" style="html=1;jettySize=18;whiteSpace=wrap;fontSize=13;strokeColor=#3a414a;strokeOpacity=100;strokeWidth=2.3;rounded=1;arcSize=48;edgeStyle=orthogonalEdgeStyle;startArrow=none;exitX=1;exitY=0.5;exitPerimeter=0;entryX=0;entryY=0.5;entryPerimeter=0;lucidId=PA0BfHS~K9mD;" edge="1" parent="1" source="hYVu58ygskaPqe57401e-32" target="hYVu58ygskaPqe57401e-34">
          <mxGeometry width="100" height="100" relative="1" as="geometry">
            <Array as="points" />
          </mxGeometry>
        </mxCell>
        <mxCell id="hYVu58ygskaPqe57401e-37" value="" style="html=1;jettySize=18;whiteSpace=wrap;fontSize=13;strokeColor=#3a414a;strokeOpacity=100;strokeWidth=2.3;rounded=1;arcSize=48;edgeStyle=orthogonalEdgeStyle;startArrow=none;exitX=1;exitY=0.5;exitPerimeter=0;entryX=0;entryY=0.5;entryPerimeter=0;lucidId=PA0BI95_Hv3~;" edge="1" parent="1" source="hYVu58ygskaPqe57401e-32" target="hYVu58ygskaPqe57401e-35">
          <mxGeometry width="100" height="100" relative="1" as="geometry">
            <Array as="points" />
          </mxGeometry>
        </mxCell>
        <mxCell id="hYVu58ygskaPqe57401e-38" value="" style="html=1;jettySize=18;whiteSpace=wrap;fontSize=13;strokeColor=#3a414a;strokeOpacity=100;strokeWidth=2.3;rounded=1;arcSize=48;curved=1;startArrow=none;exitX=1;exitY=0.5;exitPerimeter=0;entryX=0;entryY=0.5;entryPerimeter=0;lucidId=7B0B15g_olwW;" edge="1" parent="1" source="hYVu58ygskaPqe57401e-33" target="hYVu58ygskaPqe57401e-29">
          <mxGeometry width="100" height="100" relative="1" as="geometry">
            <Array as="points">
              <mxPoint x="-700" y="452" />
              <mxPoint x="178" y="815" />
            </Array>
          </mxGeometry>
        </mxCell>
        <mxCell id="hYVu58ygskaPqe57401e-39" value="" style="html=1;jettySize=18;whiteSpace=wrap;fontSize=13;strokeColor=#3a414a;strokeOpacity=100;strokeWidth=2.3;rounded=1;arcSize=48;curved=1;startArrow=none;exitX=1;exitY=0.5;exitPerimeter=0;entryX=0;entryY=0.5;entryPerimeter=0;lucidId=pC0BxBbwBU_j;" edge="1" parent="1" source="hYVu58ygskaPqe57401e-33" target="hYVu58ygskaPqe57401e-40">
          <mxGeometry width="100" height="100" relative="1" as="geometry">
            <Array as="points">
              <mxPoint x="-700" y="452" />
              <mxPoint x="-747" y="447" />
            </Array>
          </mxGeometry>
        </mxCell>
        <mxCell id="hYVu58ygskaPqe57401e-40" value="Milking status (yes/no)" style="html=1;overflow=block;blockSpacing=1;whiteSpace=wrap;fontSize=16.7;align=center;spacing=9;strokeColor=none;strokeOpacity=0;fillOpacity=100;fillColor=#00c2a8;strokeWidth=0;lucidId=aC0BPs3Z7LJX;" vertex="1" parent="1">
          <mxGeometry x="-559" y="387" width="120" height="120" as="geometry" />
        </mxCell>
        <mxCell id="hYVu58ygskaPqe57401e-41" value="" style="html=1;jettySize=18;whiteSpace=wrap;fontSize=13;strokeColor=#3a414a;strokeOpacity=100;strokeWidth=2.3;rounded=1;arcSize=48;curved=1;startArrow=none;exitX=1;exitY=0.5;exitPerimeter=0;entryX=0;entryY=0.5;entryPerimeter=0;lucidId=mD0B0D9Bqutt;" edge="1" parent="1" source="hYVu58ygskaPqe57401e-33" target="hYVu58ygskaPqe57401e-7">
          <mxGeometry width="100" height="100" relative="1" as="geometry">
            <Array as="points">
              <mxPoint x="-700" y="452" />
              <mxPoint x="48" y="-183" />
            </Array>
          </mxGeometry>
        </mxCell>
        <mxCell id="hYVu58ygskaPqe57401e-42" value="Pregnancy Ca" style="html=1;overflow=block;blockSpacing=1;whiteSpace=wrap;fontSize=16.7;spacing=9;verticalAlign=middle;strokeColor=none;strokeOpacity=0;fillOpacity=100;fillColor=#6db1ff;strokeWidth=0;lucidId=KF0B4-Sv6j4-;" vertex="1" parent="1">
          <mxGeometry x="-1007" y="745" width="120" height="120" as="geometry" />
        </mxCell>
        <mxCell id="hYVu58ygskaPqe57401e-43" value="" style="html=1;jettySize=18;whiteSpace=wrap;fontSize=13;strokeColor=#3a414a;strokeOpacity=100;strokeWidth=2.3;rounded=1;arcSize=48;curved=1;startArrow=none;exitX=1;exitY=0.5;exitPerimeter=0;entryX=0;entryY=0.5;entryPerimeter=0;lucidId=.F0BYDmf~8u8;" edge="1" parent="1" source="hYVu58ygskaPqe57401e-42" target="hYVu58ygskaPqe57401e-35">
          <mxGeometry width="100" height="100" relative="1" as="geometry">
            <Array as="points">
              <mxPoint x="-700" y="805" />
              <mxPoint x="-899" y="768" />
            </Array>
          </mxGeometry>
        </mxCell>
        <mxCell id="hYVu58ygskaPqe57401e-44" value="" style="html=1;jettySize=18;whiteSpace=wrap;fontSize=13;strokeColor=#3a414a;strokeOpacity=100;strokeWidth=2.3;rounded=1;arcSize=48;edgeStyle=orthogonalEdgeStyle;startArrow=none;exitX=1;exitY=0.5;exitPerimeter=0;entryX=0;entryY=0.5;entryPerimeter=0;lucidId=bG0BIvUBbcSn;" edge="1" parent="1" source="hYVu58ygskaPqe57401e-30" target="hYVu58ygskaPqe57401e-42">
          <mxGeometry width="100" height="100" relative="1" as="geometry">
            <Array as="points" />
          </mxGeometry>
        </mxCell>
        <mxCell id="hYVu58ygskaPqe57401e-45" value="P (g/day)" style="html=1;overflow=block;blockSpacing=1;whiteSpace=wrap;fontSize=16.7;spacing=9;strokeColor=none;strokeOpacity=0;fillOpacity=100;fillColor=#9391ff;strokeWidth=0;lucidId=-S0BRaM0K76r;" vertex="1" parent="1">
          <mxGeometry x="-2189" y="-11" width="218" height="120" as="geometry" />
        </mxCell>
        <mxCell id="hYVu58ygskaPqe57401e-46" value="Maintenance P" style="html=1;overflow=block;blockSpacing=1;whiteSpace=wrap;fontSize=16.7;align=center;spacing=9;strokeColor=none;strokeOpacity=0;fillOpacity=100;fillColor=#6db1ff;strokeWidth=0;lucidId=DT0BLM6-j5LM;" vertex="1" parent="1">
          <mxGeometry x="-1794" y="-11" width="120" height="120" as="geometry" />
        </mxCell>
        <mxCell id="hYVu58ygskaPqe57401e-47" value="" style="html=1;jettySize=18;whiteSpace=wrap;fontSize=13;strokeColor=#3a414a;strokeOpacity=100;strokeWidth=2.3;rounded=1;arcSize=48;curved=1;startArrow=none;exitX=1;exitY=0.5;exitPerimeter=0;entryX=0;entryY=0.5;entryPerimeter=0;lucidId=0T0BeGFX2.-~;" edge="1" parent="1" source="hYVu58ygskaPqe57401e-45" target="hYVu58ygskaPqe57401e-46">
          <mxGeometry width="100" height="100" relative="1" as="geometry">
            <Array as="points">
              <mxPoint x="-1783" y="49" />
              <mxPoint x="-1982" y="49" />
            </Array>
          </mxGeometry>
        </mxCell>
        <mxCell id="hYVu58ygskaPqe57401e-48" value="" style="html=1;jettySize=18;whiteSpace=wrap;fontSize=13;strokeColor=#3a414a;strokeOpacity=100;strokeWidth=2.3;rounded=1;arcSize=48;curved=1;startArrow=none;exitX=1;exitY=0.5;exitPerimeter=0;entryX=0;entryY=0.5;entryPerimeter=0;lucidId=bU0BiV1ymgXD;" edge="1" parent="1" source="hYVu58ygskaPqe57401e-46" target="hYVu58ygskaPqe57401e-3">
          <mxGeometry width="100" height="100" relative="1" as="geometry">
            <Array as="points">
              <mxPoint x="-1487" y="49" />
              <mxPoint x="-1648" y="-169" />
            </Array>
          </mxGeometry>
        </mxCell>
        <mxCell id="hYVu58ygskaPqe57401e-49" value="Endogenous P" style="html=1;overflow=block;blockSpacing=1;whiteSpace=wrap;fontSize=16.7;align=center;spacing=9;strokeColor=none;strokeOpacity=0;fillOpacity=100;fillColor=#6db1ff;strokeWidth=0;lucidId=rU0BP6WBYx_1;" vertex="1" parent="1">
          <mxGeometry x="-1794" y="165" width="120" height="120" as="geometry" />
        </mxCell>
        <mxCell id="hYVu58ygskaPqe57401e-50" value="Pregnancy P" style="html=1;overflow=block;blockSpacing=1;whiteSpace=wrap;fontSize=16.7;align=center;spacing=9;strokeColor=none;strokeOpacity=0;fillOpacity=100;fillColor=#6db1ff;strokeWidth=0;lucidId=SU0BMLCz_w2U;" vertex="1" parent="1">
          <mxGeometry x="-1794" y="331" width="120" height="120" as="geometry" />
        </mxCell>
        <mxCell id="hYVu58ygskaPqe57401e-51" value="Lactation P" style="html=1;overflow=block;blockSpacing=1;whiteSpace=wrap;fontSize=16.7;align=center;spacing=9;strokeColor=none;strokeOpacity=0;fillOpacity=100;fillColor=#6db1ff;strokeWidth=0;lucidId=UU0Bi5n5Frc7;" vertex="1" parent="1">
          <mxGeometry x="-1794" y="502" width="120" height="120" as="geometry" />
        </mxCell>
        <mxCell id="hYVu58ygskaPqe57401e-52" value="" style="html=1;jettySize=18;whiteSpace=wrap;fontSize=13;strokeColor=#3a414a;strokeOpacity=100;strokeWidth=2.3;rounded=1;arcSize=48;edgeStyle=orthogonalEdgeStyle;startArrow=none;exitX=1;exitY=0.5;exitPerimeter=0;entryX=0;entryY=0.5;entryPerimeter=0;lucidId=jV0BsEh3PTOo;" edge="1" parent="1" source="hYVu58ygskaPqe57401e-45" target="hYVu58ygskaPqe57401e-49">
          <mxGeometry width="100" height="100" relative="1" as="geometry">
            <Array as="points" />
          </mxGeometry>
        </mxCell>
        <mxCell id="hYVu58ygskaPqe57401e-53" value="" style="html=1;jettySize=18;whiteSpace=wrap;fontSize=13;strokeColor=#3a414a;strokeOpacity=100;strokeWidth=2.3;rounded=1;arcSize=48;edgeStyle=orthogonalEdgeStyle;startArrow=none;exitX=1;exitY=0.5;exitPerimeter=0;entryX=0;entryY=0.5;entryPerimeter=0;lucidId=xV0BIHM1yf_6;" edge="1" parent="1" source="hYVu58ygskaPqe57401e-45" target="hYVu58ygskaPqe57401e-50">
          <mxGeometry width="100" height="100" relative="1" as="geometry">
            <Array as="points" />
          </mxGeometry>
        </mxCell>
        <mxCell id="hYVu58ygskaPqe57401e-54" value="" style="html=1;jettySize=18;whiteSpace=wrap;fontSize=13;strokeColor=#3a414a;strokeOpacity=100;strokeWidth=2.3;rounded=1;arcSize=48;edgeStyle=orthogonalEdgeStyle;startArrow=none;exitX=1;exitY=0.5;exitPerimeter=0;entryX=0;entryY=0.5;entryPerimeter=0;lucidId=BV0B7urmZ1Qt;" edge="1" parent="1" source="hYVu58ygskaPqe57401e-45" target="hYVu58ygskaPqe57401e-51">
          <mxGeometry width="100" height="100" relative="1" as="geometry">
            <Array as="points" />
          </mxGeometry>
        </mxCell>
        <mxCell id="hYVu58ygskaPqe57401e-55" value="" style="html=1;jettySize=18;whiteSpace=wrap;fontSize=13;strokeColor=#3a414a;strokeOpacity=100;strokeWidth=2.3;rounded=1;arcSize=48;curved=1;startArrow=none;exitX=1;exitY=0.5;exitPerimeter=0;entryX=0;entryY=0.5;entryPerimeter=0;lucidId=TV0B4GahtZ4-;" edge="1" parent="1" source="hYVu58ygskaPqe57401e-49" target="hYVu58ygskaPqe57401e-29">
          <mxGeometry width="100" height="100" relative="1" as="geometry">
            <Array as="points">
              <mxPoint x="-1346" y="225" />
              <mxPoint x="-780" y="197" />
              <mxPoint x="-311" y="373" />
              <mxPoint x="50" y="726" />
            </Array>
          </mxGeometry>
        </mxCell>
        <mxCell id="hYVu58ygskaPqe57401e-56" value="" style="html=1;jettySize=18;whiteSpace=wrap;fontSize=13;strokeColor=#3a414a;strokeOpacity=100;strokeWidth=2.3;rounded=1;arcSize=48;edgeStyle=orthogonalEdgeStyle;startArrow=none;exitX=1;exitY=0.5;exitPerimeter=0;entryX=0;entryY=0.5;entryPerimeter=0;lucidId=nW0BOS5WVRo5;" edge="1" parent="1" source="hYVu58ygskaPqe57401e-50" target="hYVu58ygskaPqe57401e-35">
          <mxGeometry width="100" height="100" relative="1" as="geometry">
            <Array as="points" />
          </mxGeometry>
        </mxCell>
        <mxCell id="hYVu58ygskaPqe57401e-57" value="" style="html=1;jettySize=18;whiteSpace=wrap;fontSize=13;strokeColor=#3a414a;strokeOpacity=100;strokeWidth=2.3;rounded=1;arcSize=48;curved=1;startArrow=none;exitX=1;exitY=0.5;exitPerimeter=0;entryX=0;entryY=0.5;entryPerimeter=0;lucidId=OX0BgBnyNMfT;" edge="1" parent="1" source="hYVu58ygskaPqe57401e-51" target="hYVu58ygskaPqe57401e-7">
          <mxGeometry width="100" height="100" relative="1" as="geometry">
            <Array as="points">
              <mxPoint x="-1316" y="562" />
              <mxPoint x="-968" y="235" />
              <mxPoint x="-610" y="-45" />
              <mxPoint x="-123" y="-183" />
            </Array>
          </mxGeometry>
        </mxCell>
        <mxCell id="hYVu58ygskaPqe57401e-58" value="" style="html=1;jettySize=18;whiteSpace=wrap;fontSize=13;strokeColor=#3a414a;strokeOpacity=100;strokeWidth=2.3;rounded=1;arcSize=48;edgeStyle=orthogonalEdgeStyle;startArrow=none;exitX=1;exitY=0.5;exitPerimeter=0;entryX=0;entryY=0.5;entryPerimeter=0;lucidId=z05BGX4W9hd4;" edge="1" parent="1" source="hYVu58ygskaPqe57401e-13" target="hYVu58ygskaPqe57401e-59">
          <mxGeometry width="100" height="100" relative="1" as="geometry">
            <Array as="points" />
          </mxGeometry>
        </mxCell>
        <mxCell id="hYVu58ygskaPqe57401e-59" value="Activity Energy (KIV)" style="html=1;overflow=block;blockSpacing=1;whiteSpace=wrap;fontSize=16.7;spacing=9;verticalAlign=middle;strokeColor=none;strokeOpacity=0;fillOpacity=100;fillColor=#6db1ff;strokeWidth=0;lucidId=i05B-sVFNDUc;" vertex="1" parent="1">
          <mxGeometry x="-977" y="1538" width="120" height="120" as="geometry" />
        </mxCell>
        <mxCell id="hYVu58ygskaPqe57401e-60" value="CP (needs clarification)&#xa;inconsistent between sheets" style="html=1;overflow=block;blockSpacing=1;whiteSpace=wrap;fontSize=16.7;spacing=9;strokeColor=none;strokeOpacity=0;fillOpacity=100;fillColor=#9391ff;strokeWidth=0;lucidId=_25B8Nfx6Ksg;" vertex="1" parent="1">
          <mxGeometry x="-2171" y="1022" width="218" height="120" as="geometry" />
        </mxCell>
      </root>
    </mxGraphModel>
  </diagram>
</mxfile>
